G04 Layer_Color=8421504*
%FSAX24Y24*%
%MOIN*%
G70*
G01*
G75*
%ADD10R,0.0315X0.0354*%
%ADD11R,0.0394X0.0965*%
%ADD12R,0.0965X0.0394*%
%ADD13R,0.0315X0.0335*%
%ADD14R,0.0354X0.0374*%
%ADD15R,0.0413X0.0217*%
%ADD16R,0.0335X0.0315*%
%ADD17R,0.0354X0.0315*%
%ADD18R,0.0157X0.0531*%
%ADD19R,0.0827X0.0630*%
%ADD20R,0.0709X0.0748*%
%ADD21R,0.0748X0.0748*%
%ADD22R,0.0394X0.1378*%
%ADD23R,0.0591X0.1339*%
%ADD24R,0.0551X0.1181*%
%ADD25R,0.0276X0.0472*%
%ADD26R,0.0472X0.0276*%
G04:AMPARAMS|DCode=27|XSize=50mil|YSize=144.9mil|CornerRadius=12.5mil|HoleSize=0mil|Usage=FLASHONLY|Rotation=180.000|XOffset=0mil|YOffset=0mil|HoleType=Round|Shape=RoundedRectangle|*
%AMROUNDEDRECTD27*
21,1,0.0500,0.1199,0,0,180.0*
21,1,0.0250,0.1449,0,0,180.0*
1,1,0.0250,-0.0125,0.0599*
1,1,0.0250,0.0125,0.0599*
1,1,0.0250,0.0125,-0.0599*
1,1,0.0250,-0.0125,-0.0599*
%
%ADD27ROUNDEDRECTD27*%
D10*
X023295Y031500D02*
D03*
X022705D02*
D03*
X025495Y029100D02*
D03*
X024905D02*
D03*
X011395Y013900D02*
D03*
X010805D02*
D03*
X019795Y024000D02*
D03*
X019205D02*
D03*
X026705Y021750D02*
D03*
X027295D02*
D03*
X010805Y017500D02*
D03*
X011395D02*
D03*
X010805Y018500D02*
D03*
X011395D02*
D03*
X016605Y018700D02*
D03*
X017195D02*
D03*
X019795Y027000D02*
D03*
X019205D02*
D03*
X019795Y026000D02*
D03*
X019205D02*
D03*
X019795Y025000D02*
D03*
X019205D02*
D03*
X010795Y026450D02*
D03*
X010205D02*
D03*
X011795D02*
D03*
X011205D02*
D03*
X005595Y026500D02*
D03*
X005005D02*
D03*
X012205Y013900D02*
D03*
X012795D02*
D03*
X013605D02*
D03*
X014195D02*
D03*
X012905Y018000D02*
D03*
X013495D02*
D03*
D11*
X027750Y028000D02*
D03*
X027199D02*
D03*
X026648D02*
D03*
X026096D02*
D03*
X025545D02*
D03*
X024994D02*
D03*
X024443D02*
D03*
X023892D02*
D03*
Y022882D02*
D03*
X024443D02*
D03*
X024994D02*
D03*
X025545D02*
D03*
X026096D02*
D03*
X026648D02*
D03*
X027199D02*
D03*
X027750D02*
D03*
D12*
X022907Y027370D02*
D03*
Y026819D02*
D03*
Y026268D02*
D03*
Y025717D02*
D03*
Y024614D02*
D03*
Y024063D02*
D03*
Y023512D02*
D03*
Y025165D02*
D03*
D13*
X024776Y031500D02*
D03*
X024224D02*
D03*
X022924Y029100D02*
D03*
X023476D02*
D03*
X005776Y029250D02*
D03*
X005224D02*
D03*
D14*
X013595Y014500D02*
D03*
X014205D02*
D03*
X012195D02*
D03*
X012805D02*
D03*
X010795D02*
D03*
X011405D02*
D03*
X021305Y027000D02*
D03*
X020695D02*
D03*
X021305Y026000D02*
D03*
X020695D02*
D03*
X021305Y025000D02*
D03*
X020695D02*
D03*
X021305Y024000D02*
D03*
X020695D02*
D03*
D15*
X013978Y018026D02*
D03*
Y018774D02*
D03*
X015022D02*
D03*
Y018400D02*
D03*
Y018026D02*
D03*
D16*
X013300Y019376D02*
D03*
Y018824D02*
D03*
X012200Y017876D02*
D03*
Y017324D02*
D03*
X010800Y019524D02*
D03*
Y020076D02*
D03*
X015900Y017724D02*
D03*
Y018276D02*
D03*
D17*
X006900Y018005D02*
D03*
Y018595D02*
D03*
X007600Y018605D02*
D03*
Y019195D02*
D03*
X015150Y019955D02*
D03*
Y020545D02*
D03*
X024200Y029105D02*
D03*
Y029695D02*
D03*
X012200Y018705D02*
D03*
Y019295D02*
D03*
D18*
X018400Y014853D02*
D03*
X018656D02*
D03*
X018912D02*
D03*
X018144D02*
D03*
X017888D02*
D03*
D19*
X017180Y014863D02*
D03*
X019620D02*
D03*
D20*
X016825Y013800D02*
D03*
X019975D02*
D03*
D21*
X017928D02*
D03*
X018872D02*
D03*
D22*
X022706Y016089D02*
D03*
X023494D02*
D03*
D23*
X024419Y013904D02*
D03*
X021781D02*
D03*
D24*
X018500Y030000D02*
D03*
X021500D02*
D03*
X020000D02*
D03*
D25*
X017900Y017128D02*
D03*
Y015672D02*
D03*
D26*
X019372Y017200D02*
D03*
X020828D02*
D03*
D27*
X005800Y018948D02*
D03*
X004800D02*
D03*
Y017200D02*
D03*
X005800D02*
D03*
X014000Y029600D02*
D03*
X013000D02*
D03*
X012000D02*
D03*
Y031348D02*
D03*
X013000D02*
D03*
X014000D02*
D03*
M02*
