M48
;Layer_Color=9474304
;FILE_FORMAT=2:4
INCH
;TYPE=PLATED
T1F00S00C0.0280
T2F00S00C0.0500
T3F00S00C0.1285
%
T01
X008000Y014500
X012200Y015500
X013200
X015500
X017900Y018700
X016200Y020800
X020200Y023100
Y028200
X021000Y028400
X021800Y028600
X023400Y030100
X024200Y026900
X024751Y026396
X025302Y025796
X025854Y025196
X027000Y019000
Y017500
X017500Y030700
X016500Y030100
X010800
X009400Y030900
X008000Y031000
X006000Y025000
Y023500
X007900Y020100
X007200Y016200
X013978Y016822
X015200Y023200
X014900Y031500
X016500
X017900Y032000
X021800Y031700
T02
X016000Y022000
Y028000
X015000
X014000
X013000
X012000
X011000
X010000
X009000
X008000
X007000
X006000
X005000
Y022000
X006000
X007000
X008000
X009000
X010000
X011000
X012000
X013000
X014000
X015000
X009700Y019400
Y018400
Y017400
Y016400
X008700
Y017400
Y018400
Y019400
T03
X005500Y015000
X026500
Y031000
X005500
M30
