G04 Layer_Physical_Order=2*
G04 Layer_Color=16711680*
%FSAX24Y24*%
%MOIN*%
G70*
G01*
G75*
%ADD28C,0.0200*%
%ADD29C,0.0150*%
%ADD30C,0.0300*%
%ADD31C,0.0700*%
%ADD32O,0.1900X0.1910*%
%ADD33C,0.0500*%
D28*
X014000Y021400D02*
Y022000D01*
Y021400D02*
X014600Y020800D01*
X016200D01*
X015400Y022600D02*
X016000Y022000D01*
X014400Y022600D02*
X015400D01*
X013400Y023600D02*
X014400Y022600D01*
X013400Y023600D02*
Y024200D01*
X014396Y025196D01*
X011000Y022000D02*
Y024200D01*
X012596Y025796D01*
X010000Y022000D02*
Y024300D01*
X009000Y022000D02*
Y024200D01*
X011700Y026900D01*
X024200D01*
X012400Y016300D02*
X013200Y015500D01*
X012400Y016300D02*
Y020500D01*
X013000Y021100D02*
Y022000D01*
X011600Y016100D02*
X012200Y015500D01*
X011600Y016100D02*
Y020700D01*
X012000Y021100D01*
Y022000D01*
X010000Y024300D02*
X012096Y026396D01*
X014396Y025196D02*
X025854D01*
X012596Y025796D02*
X025302D01*
X012096Y026396D02*
X024751D01*
X012400Y020500D02*
X013000Y021100D01*
X008000Y020100D02*
X009400D01*
X009700Y019800D01*
X007900Y020000D02*
Y020100D01*
Y020000D02*
X008000Y020100D01*
X006000Y021200D02*
X007200Y020000D01*
Y016200D02*
Y020000D01*
X006000Y021200D02*
Y022000D01*
X009700Y019300D02*
Y019400D01*
Y019800D01*
X014900Y031500D02*
X016500D01*
X010800Y030100D02*
X016500D01*
X009400Y030900D02*
X017300D01*
X017500Y030700D01*
X020800D01*
X021800Y031700D01*
D29*
X019800Y028600D02*
X020200Y028200D01*
X012600Y028600D02*
X019800D01*
X020400Y029000D02*
X021000Y028400D01*
X010400Y029000D02*
X020400D01*
X012000Y028000D02*
X012600Y028600D01*
X010000D02*
X010400Y029000D01*
X009800Y029400D02*
X021000D01*
X009000Y028600D02*
X009800Y029400D01*
X021000D02*
X021800Y028600D01*
X010000Y028000D02*
Y028600D01*
X009000Y028000D02*
Y028600D01*
D30*
X015200Y023200D02*
X015300Y023100D01*
X016000D01*
X023800Y018500D02*
X027500Y022200D01*
X020900Y018500D02*
X023800D01*
X023400Y028525D02*
X027500Y024425D01*
Y022200D02*
Y024425D01*
X023400Y028525D02*
Y030100D01*
X016000Y023100D02*
X017900Y021200D01*
Y018700D02*
Y021200D01*
X019222Y016822D02*
X020900Y018500D01*
X013978Y016822D02*
X019222D01*
D31*
X005000Y022000D02*
D03*
X006000D02*
D03*
X007000D02*
D03*
X008000D02*
D03*
X009000D02*
D03*
X010000D02*
D03*
X011000D02*
D03*
X012000D02*
D03*
X013000D02*
D03*
X014000D02*
D03*
X015000D02*
D03*
X016000D02*
D03*
Y028000D02*
D03*
X015000D02*
D03*
X014000D02*
D03*
X013000D02*
D03*
X012000D02*
D03*
X011000D02*
D03*
X010000D02*
D03*
X009000D02*
D03*
X008000D02*
D03*
X007000D02*
D03*
X006000D02*
D03*
X005000D02*
D03*
X008700Y016400D02*
D03*
X009700D02*
D03*
X008700Y017400D02*
D03*
X009700D02*
D03*
X008700Y018400D02*
D03*
X009700D02*
D03*
X008700Y019400D02*
D03*
X009700D02*
D03*
D32*
X026500Y031000D02*
D03*
X005500D02*
D03*
Y015000D02*
D03*
X026500D02*
D03*
D33*
X016200Y020800D02*
D03*
X020200Y028200D02*
D03*
X021000Y028400D02*
D03*
X021800Y028600D02*
D03*
X024200Y026900D02*
D03*
X023400Y030100D02*
D03*
X013200Y015500D02*
D03*
X012200D02*
D03*
X013978Y016822D02*
D03*
X025854Y025196D02*
D03*
X025302Y025796D02*
D03*
X024751Y026396D02*
D03*
X008000Y014500D02*
D03*
X015500Y015500D02*
D03*
X006000Y023500D02*
D03*
Y025000D02*
D03*
X020200Y023100D02*
D03*
X027000Y019000D02*
D03*
Y017500D02*
D03*
X017900Y032000D02*
D03*
X008000Y031000D02*
D03*
X015200Y023200D02*
D03*
X017900Y018700D02*
D03*
X007900Y020100D02*
D03*
X007200Y016200D02*
D03*
X016500Y031500D02*
D03*
X014900D02*
D03*
X016500Y030100D02*
D03*
X010800D02*
D03*
X021800Y031700D02*
D03*
X017500Y030700D02*
D03*
X009400Y030900D02*
D03*
M02*
