G04 Layer_Physical_Order=2*
G04 Layer_Color=16711680*
%FSLAX25Y25*%
%MOIN*%
G70*
G01*
G75*
%ADD34C,0.01000*%
%ADD35C,0.02000*%
%ADD36C,0.01500*%
%ADD38C,0.10000*%
%ADD39C,0.02000*%
%ADD40R,0.09646X0.03937*%
%ADD41R,0.03937X0.09646*%
G36*
X120387Y174094D02*
X120369Y174000D01*
X120493Y173376D01*
X120846Y172846D01*
X121376Y172493D01*
X122000Y172369D01*
X122038Y172376D01*
X122207Y172207D01*
X122207Y172207D01*
X122571Y171964D01*
X123000Y171878D01*
X167535D01*
X169560Y169854D01*
Y158151D01*
X165258D01*
Y153139D01*
X165258Y153014D01*
Y152639D01*
X165258Y152514D01*
Y147628D01*
X165258Y147502D01*
Y147128D01*
X165258Y147002D01*
Y146035D01*
X164758Y145828D01*
X163122Y147465D01*
Y157825D01*
X163154Y157846D01*
X163507Y158376D01*
X163631Y159000D01*
X163588Y159216D01*
X163882Y159573D01*
Y165425D01*
Y171248D01*
X161413D01*
Y170848D01*
X156427D01*
X156302Y170848D01*
Y170848D01*
X155927D01*
Y170848D01*
X150790D01*
Y170848D01*
X150415D01*
Y170848D01*
X145278D01*
Y170848D01*
X144903D01*
Y170848D01*
X139891D01*
X139766Y170848D01*
X139391D01*
X139266Y170848D01*
X134379D01*
X134254Y170848D01*
X133879D01*
X133754Y170848D01*
X128743D01*
Y170848D01*
X128368D01*
Y170848D01*
X123231D01*
Y160002D01*
X125878D01*
Y156955D01*
X125378Y156728D01*
X125323Y156777D01*
Y158551D01*
X120000D01*
Y155583D01*
X119500D01*
Y155083D01*
X113677D01*
Y152614D01*
X114077D01*
Y151702D01*
X113071D01*
X112522Y151593D01*
X112022Y151809D01*
Y166024D01*
X112135Y166108D01*
X112192Y166121D01*
X112785Y165967D01*
X113058Y165558D01*
X113720Y165116D01*
X114000Y165060D01*
Y167000D01*
X114500D01*
Y167500D01*
X116440D01*
X116384Y167780D01*
X115942Y168442D01*
X115280Y168884D01*
X115125Y168915D01*
X114980Y169393D01*
X119927Y174340D01*
X120387Y174094D01*
D02*
G37*
G36*
X135469Y159502D02*
X135369Y159000D01*
X135493Y158376D01*
X135846Y157846D01*
X136376Y157493D01*
X137000Y157369D01*
X137423Y157453D01*
X137618Y156982D01*
X137558Y156942D01*
X137116Y156280D01*
X137060Y156000D01*
X139000D01*
Y155500D01*
X139500D01*
Y153554D01*
X139907Y153145D01*
X139878Y153000D01*
X139878Y153000D01*
Y138465D01*
X137571Y136157D01*
X137065Y136306D01*
X137043Y136336D01*
X137122Y136731D01*
Y146825D01*
X137153Y146846D01*
X137507Y147376D01*
X137631Y148000D01*
X137507Y148624D01*
X137153Y149153D01*
X136624Y149507D01*
X136000Y149631D01*
X135376Y149507D01*
X134846Y149153D01*
X134493Y148624D01*
X134369Y148000D01*
X134493Y147376D01*
X134846Y146846D01*
X134878Y146825D01*
Y137195D01*
X125385Y127702D01*
X124923Y127893D01*
Y130467D01*
X124923Y130592D01*
Y130967D01*
X124923Y131092D01*
Y132837D01*
X128962Y136876D01*
X129000Y136869D01*
X129624Y136993D01*
X130154Y137346D01*
X130507Y137876D01*
X130631Y138500D01*
X130507Y139124D01*
X130154Y139654D01*
X129624Y140007D01*
X129000Y140131D01*
X128376Y140007D01*
X127847Y139654D01*
X127493Y139124D01*
X127369Y138500D01*
X127376Y138462D01*
X125423Y136509D01*
X124923Y136716D01*
Y141616D01*
X124923D01*
Y141991D01*
X124923D01*
Y147127D01*
X124923D01*
Y147502D01*
X124923D01*
Y152614D01*
X125323D01*
Y154223D01*
X125378Y154272D01*
X125878Y154045D01*
Y149030D01*
X125878Y149030D01*
X125964Y148601D01*
X126207Y148237D01*
X128337Y146107D01*
X128337Y146107D01*
X128701Y145864D01*
X129130Y145778D01*
X129130Y145778D01*
X130948D01*
X131376Y145493D01*
X132000Y145369D01*
X132624Y145493D01*
X133153Y145846D01*
X133507Y146376D01*
X133631Y147000D01*
X133507Y147624D01*
X133153Y148153D01*
X132624Y148507D01*
X132000Y148631D01*
X131981Y148628D01*
X131628Y148981D01*
X131631Y149000D01*
X131507Y149624D01*
X131154Y150154D01*
X131122Y150175D01*
Y160002D01*
X133754D01*
X133879Y160002D01*
X134254D01*
X134379Y160002D01*
X135190D01*
X135469Y159502D01*
D02*
G37*
G36*
X170386Y249693D02*
X170553Y249582D01*
X170695Y249440D01*
X171510Y248895D01*
X171696Y248818D01*
X171863Y248707D01*
X172768Y248331D01*
X172965Y248292D01*
X173151Y248215D01*
X174112Y248024D01*
X174263D01*
X174410Y247987D01*
X174900Y247963D01*
X174950Y247971D01*
X175000Y247961D01*
X185292D01*
X185864Y247847D01*
X186402Y247624D01*
X186887Y247300D01*
X187300Y246887D01*
X187624Y246403D01*
X187847Y245864D01*
X187961Y245292D01*
Y245000D01*
Y105000D01*
Y104708D01*
X187847Y104136D01*
X187624Y103597D01*
X187300Y103113D01*
X186887Y102700D01*
X186402Y102376D01*
X185864Y102153D01*
X185292Y102039D01*
X104708D01*
X104136Y102153D01*
X103597Y102376D01*
X103113Y102700D01*
X102700Y103113D01*
X102376Y103597D01*
X102153Y104136D01*
X102039Y104708D01*
Y118721D01*
X102501Y118913D01*
X111207Y110207D01*
X111207Y110207D01*
X111571Y109964D01*
X112000Y109878D01*
X112000Y109878D01*
X125000D01*
X125000Y109878D01*
X125429Y109964D01*
X125793Y110207D01*
X129793Y114207D01*
X129793Y114207D01*
X130036Y114571D01*
X130122Y115000D01*
Y119000D01*
X130122Y119000D01*
X130036Y119429D01*
X129793Y119793D01*
X129793Y119793D01*
X126580Y123006D01*
X126627Y123508D01*
X127044Y123714D01*
X127376Y123493D01*
X128000Y123369D01*
X128624Y123493D01*
X129154Y123846D01*
X129507Y124376D01*
X129627Y124978D01*
X129892Y125165D01*
X130138Y125080D01*
X130381Y124938D01*
X130493Y124376D01*
X130847Y123846D01*
X131376Y123493D01*
X132000Y123369D01*
X132624Y123493D01*
X133153Y123846D01*
X133507Y124376D01*
X133627Y124978D01*
X133892Y125165D01*
X134138Y125080D01*
X134381Y124938D01*
X134493Y124376D01*
X134846Y123846D01*
X135376Y123493D01*
X136000Y123369D01*
X136624Y123493D01*
X137153Y123846D01*
X137507Y124376D01*
X137627Y124978D01*
X137892Y125165D01*
X138138Y125080D01*
X138381Y124938D01*
X138493Y124376D01*
X138847Y123846D01*
X139376Y123493D01*
X140000Y123369D01*
X140624Y123493D01*
X141154Y123846D01*
X141507Y124376D01*
X141631Y125000D01*
X141624Y125038D01*
X147793Y131207D01*
X147793Y131207D01*
X148036Y131571D01*
X148122Y132000D01*
Y148380D01*
X148622Y148516D01*
X149220Y148116D01*
X149500Y148060D01*
Y150000D01*
X150000D01*
Y150500D01*
X151940D01*
X151884Y150780D01*
X151442Y151442D01*
X151018Y151725D01*
X150914Y152328D01*
X158589Y160002D01*
X160190D01*
X160469Y159502D01*
X160369Y159000D01*
X160493Y158376D01*
X160846Y157846D01*
X160878Y157825D01*
Y154139D01*
X160378Y153987D01*
X160267Y154154D01*
X159738Y154507D01*
X159114Y154631D01*
X158490Y154507D01*
X157960Y154154D01*
X157607Y153624D01*
X157482Y153000D01*
X157607Y152376D01*
X157960Y151847D01*
X157992Y151825D01*
Y143886D01*
X157992Y143886D01*
X158078Y143457D01*
X158321Y143093D01*
X163160Y138254D01*
X163524Y138011D01*
X163953Y137926D01*
X163953Y137926D01*
X165258D01*
Y136504D01*
X164858D01*
Y134035D01*
X170681D01*
X176504D01*
Y136504D01*
X176104D01*
Y141491D01*
X176104Y141616D01*
Y141991D01*
X176104Y142116D01*
Y147002D01*
X176104Y147128D01*
Y147502D01*
X176104Y147628D01*
Y152514D01*
X176104Y152639D01*
Y153014D01*
X176104Y153139D01*
Y158151D01*
X171803D01*
Y170319D01*
X171803Y170319D01*
X171717Y170748D01*
X171474Y171112D01*
X171474Y171112D01*
X168793Y173793D01*
X168429Y174036D01*
X168000Y174122D01*
X168000Y174122D01*
X123607D01*
X123507Y174624D01*
X123153Y175154D01*
X122624Y175507D01*
X122000Y175631D01*
X121906Y175613D01*
X121660Y176073D01*
X124793Y179207D01*
X124793Y179207D01*
X125036Y179571D01*
X125122Y180000D01*
X125122Y180000D01*
Y185535D01*
X129465Y189878D01*
X129566D01*
X130337Y189107D01*
X130337Y189107D01*
X130701Y188864D01*
X131130Y188778D01*
X132870D01*
X132870Y188778D01*
X133299Y188864D01*
X133663Y189107D01*
X141434Y196878D01*
X146031D01*
X146183Y196378D01*
X145846Y196153D01*
X145493Y195624D01*
X145369Y195000D01*
X145493Y194376D01*
X145846Y193846D01*
X145878Y193825D01*
Y185465D01*
X140038Y179624D01*
X140000Y179631D01*
X139376Y179507D01*
X138847Y179154D01*
X138493Y178624D01*
X138369Y178000D01*
X138493Y177376D01*
X138847Y176847D01*
X139376Y176493D01*
X140000Y176369D01*
X140624Y176493D01*
X141154Y176847D01*
X141250Y176991D01*
X141750D01*
X141847Y176847D01*
X142376Y176493D01*
X143000Y176369D01*
X143624Y176493D01*
X144153Y176847D01*
X144250Y176991D01*
X144750D01*
X144846Y176847D01*
X145376Y176493D01*
X146000Y176369D01*
X146624Y176493D01*
X147153Y176847D01*
X147507Y177376D01*
X147631Y178000D01*
X147624Y178038D01*
X153793Y184207D01*
X153793Y184207D01*
X154036Y184571D01*
X154122Y185000D01*
Y193825D01*
X154154Y193846D01*
X154507Y194376D01*
X154585Y194768D01*
X155113Y194947D01*
X159503Y190557D01*
Y181682D01*
X159471Y181661D01*
X159117Y181131D01*
X158993Y180507D01*
X159117Y179883D01*
X159471Y179354D01*
X160000Y179000D01*
X160624Y178876D01*
X161249Y179000D01*
X161778Y179354D01*
X162132Y179883D01*
X162256Y180507D01*
X162132Y181131D01*
X161778Y181661D01*
X161746Y181682D01*
Y191022D01*
X161746Y191022D01*
X161661Y191451D01*
X161417Y191815D01*
X154439Y198793D01*
X154075Y199036D01*
X153646Y199122D01*
X153646Y199122D01*
X140970D01*
X140970Y199122D01*
X140541Y199036D01*
X140177Y198793D01*
X133983Y192599D01*
X133424Y192748D01*
X133153Y193154D01*
X132624Y193507D01*
X132000Y193631D01*
X131962Y193624D01*
X131793Y193793D01*
X131495Y193992D01*
X131427Y194303D01*
X131425Y194547D01*
X131442Y194558D01*
X131884Y195220D01*
X131940Y195500D01*
X128060D01*
X128116Y195220D01*
X128516Y194622D01*
X128380Y194122D01*
X128000D01*
X128000Y194122D01*
X127571Y194036D01*
X127207Y193793D01*
X127207Y193793D01*
X121207Y187793D01*
X120964Y187429D01*
X120878Y187000D01*
X120878Y187000D01*
Y181465D01*
X108984Y169570D01*
X108522Y169761D01*
Y171935D01*
X117962Y181376D01*
X118000Y181369D01*
X118624Y181493D01*
X119153Y181846D01*
X119507Y182376D01*
X119631Y183000D01*
X119507Y183624D01*
X119153Y184153D01*
X118624Y184507D01*
X118000Y184631D01*
X117376Y184507D01*
X116847Y184153D01*
X116493Y183624D01*
X116369Y183000D01*
X116376Y182962D01*
X106876Y173463D01*
X106376Y173670D01*
Y202180D01*
X106507Y202376D01*
X106553Y202607D01*
X107973Y204027D01*
X108272Y204473D01*
X108377Y205000D01*
X108376Y205000D01*
Y241430D01*
X112570Y245623D01*
X119000D01*
X119527Y245728D01*
X119973Y246027D01*
X123947Y250000D01*
X132438D01*
X133538Y249544D01*
X135000Y249352D01*
X136462Y249544D01*
X137562Y250000D01*
X152438D01*
X153538Y249544D01*
X155000Y249352D01*
X156462Y249544D01*
X157562Y250000D01*
X170079D01*
X170386Y249693D01*
D02*
G37*
%LPC*%
G36*
X119000Y158551D02*
X113677D01*
Y156083D01*
X119000D01*
Y158551D01*
D02*
G37*
G36*
X167350Y164925D02*
X164882D01*
Y159602D01*
X167350D01*
Y164925D01*
D02*
G37*
G36*
X116440Y166500D02*
X115000D01*
Y165060D01*
X115280Y165116D01*
X115942Y165558D01*
X116384Y166220D01*
X116440Y166500D01*
D02*
G37*
G36*
X167350Y171248D02*
X164882D01*
Y165925D01*
X167350D01*
Y171248D01*
D02*
G37*
G36*
X138500Y155000D02*
X137060D01*
X137116Y154720D01*
X137558Y154058D01*
X138220Y153616D01*
X138500Y153560D01*
Y155000D01*
D02*
G37*
G36*
X151940Y149500D02*
X150500D01*
Y148060D01*
X150780Y148116D01*
X151442Y148558D01*
X151884Y149220D01*
X151940Y149500D01*
D02*
G37*
G36*
X146884Y126720D02*
X145444D01*
X145500Y126439D01*
X145942Y125778D01*
X146604Y125336D01*
X146884Y125280D01*
Y126720D01*
D02*
G37*
G36*
X176504Y122012D02*
X170681D01*
X164858D01*
Y119543D01*
Y117500D01*
X170681D01*
X176504D01*
Y119543D01*
Y122012D01*
D02*
G37*
G36*
Y116500D02*
X171181D01*
Y114032D01*
X176504D01*
Y116500D01*
D02*
G37*
G36*
X170181D02*
X164858D01*
Y114032D01*
X170181D01*
Y116500D01*
D02*
G37*
G36*
X176504Y133035D02*
X170681D01*
X164858D01*
Y130567D01*
X164858D01*
X164726Y130122D01*
X151175D01*
X151154Y130154D01*
X150624Y130507D01*
X150000Y130631D01*
X149376Y130507D01*
X148846Y130154D01*
X148493Y129624D01*
X148468Y129502D01*
X148164Y129104D01*
X147928Y129151D01*
X147884Y129159D01*
Y127220D01*
Y125280D01*
X148164Y125336D01*
X148826Y125778D01*
X149268Y126439D01*
X149376Y126983D01*
X149814Y127358D01*
X149899Y127389D01*
X150000Y127369D01*
X150624Y127493D01*
X151154Y127847D01*
X151175Y127878D01*
X165258D01*
Y125480D01*
X164858D01*
Y123012D01*
X170681D01*
X176504D01*
Y125480D01*
X176104D01*
Y130567D01*
X176504D01*
Y133035D01*
D02*
G37*
G36*
X146884Y129159D02*
X146604Y129104D01*
X145942Y128662D01*
X145500Y128000D01*
X145444Y127720D01*
X146884D01*
Y129159D01*
D02*
G37*
G36*
X136181Y179007D02*
X135557Y178883D01*
X135027Y178529D01*
X134674Y178000D01*
X134550Y177376D01*
X134674Y176751D01*
X135027Y176222D01*
X135557Y175868D01*
X136181Y175744D01*
X136805Y175868D01*
X137334Y176222D01*
X137688Y176751D01*
X137812Y177376D01*
X137688Y178000D01*
X137334Y178529D01*
X136805Y178883D01*
X136181Y179007D01*
D02*
G37*
G36*
X182000Y229440D02*
Y228000D01*
X183440D01*
X183384Y228280D01*
X182942Y228942D01*
X182280Y229384D01*
X182000Y229440D01*
D02*
G37*
G36*
X181000D02*
X180720Y229384D01*
X180058Y228942D01*
X179616Y228280D01*
X179560Y228000D01*
X181000D01*
Y229440D01*
D02*
G37*
G36*
X183440Y227000D02*
X182000D01*
Y225560D01*
X182280Y225616D01*
X182942Y226058D01*
X183384Y226720D01*
X183440Y227000D01*
D02*
G37*
G36*
X158000Y238500D02*
X156560D01*
X156616Y238220D01*
X157058Y237558D01*
X157720Y237116D01*
X158000Y237060D01*
Y238500D01*
D02*
G37*
G36*
X159000Y240940D02*
Y239500D01*
X160440D01*
X160384Y239780D01*
X159942Y240442D01*
X159280Y240884D01*
X159000Y240940D01*
D02*
G37*
G36*
X158000D02*
X157720Y240884D01*
X157058Y240442D01*
X156616Y239780D01*
X156560Y239500D01*
X158000D01*
Y240940D01*
D02*
G37*
G36*
X160440Y238500D02*
X159000D01*
Y237060D01*
X159280Y237116D01*
X159942Y237558D01*
X160384Y238220D01*
X160440Y238500D01*
D02*
G37*
G36*
X156500Y205500D02*
X155060D01*
X155116Y205220D01*
X155558Y204558D01*
X156220Y204116D01*
X156500Y204060D01*
Y205500D01*
D02*
G37*
G36*
X130500Y197940D02*
Y196500D01*
X131940D01*
X131884Y196780D01*
X131442Y197442D01*
X130780Y197884D01*
X130500Y197940D01*
D02*
G37*
G36*
X129500D02*
X129220Y197884D01*
X128558Y197442D01*
X128116Y196780D01*
X128060Y196500D01*
X129500D01*
Y197940D01*
D02*
G37*
G36*
X158940Y205500D02*
X157500D01*
Y204060D01*
X157780Y204116D01*
X158442Y204558D01*
X158884Y205220D01*
X158940Y205500D01*
D02*
G37*
G36*
X181000Y227000D02*
X179560D01*
X179616Y226720D01*
X180058Y226058D01*
X180720Y225616D01*
X181000Y225560D01*
Y227000D01*
D02*
G37*
G36*
X157500Y207940D02*
Y206500D01*
X158940D01*
X158884Y206780D01*
X158442Y207442D01*
X157780Y207884D01*
X157500Y207940D01*
D02*
G37*
G36*
X156500D02*
X156220Y207884D01*
X155558Y207442D01*
X155116Y206780D01*
X155060Y206500D01*
X156500D01*
Y207940D01*
D02*
G37*
%LPD*%
D34*
X138500Y284900D02*
X163000Y260400D01*
Y259800D02*
Y260400D01*
X169705Y129000D02*
X170681Y128024D01*
X150000Y129000D02*
X169705D01*
X162000Y147000D02*
X164441Y144559D01*
X170681D01*
X163953Y139047D02*
X170681D01*
X140000Y125000D02*
X147000Y132000D01*
X153000Y165067D02*
X153358Y165425D01*
X147000Y132000D02*
Y150000D01*
X158870Y161870D01*
X136000Y125000D02*
X145000Y134000D01*
Y151000D01*
X153000Y159000D01*
Y165067D01*
X132000Y125000D02*
X143000Y136000D01*
Y152000D01*
X147846Y156846D01*
Y165425D01*
X128000Y125000D02*
X141000Y138000D01*
Y153000D01*
X142335Y154335D01*
Y165425D01*
X170681Y155583D02*
Y170319D01*
X112000Y117000D02*
X119500D01*
X112976Y128024D02*
X119500D01*
X124000Y180000D02*
Y186000D01*
X113488Y122512D02*
X119500D01*
X122000Y181000D02*
Y187000D01*
X124000Y186000D02*
X129000Y191000D01*
X130030D01*
X131130Y189900D01*
X132870D01*
X122000Y187000D02*
X128000Y193000D01*
X131000D01*
X132000Y192000D01*
X110900Y130100D02*
X112976Y128024D01*
X109000Y127000D02*
X113488Y122512D01*
X107400Y121600D02*
X112000Y117000D01*
X129130Y146900D02*
X131900D01*
X127000Y149030D02*
X129130Y146900D01*
X127000Y149030D02*
Y164224D01*
X125799Y165425D02*
X127000Y164224D01*
X131900Y146900D02*
X132000Y147000D01*
X162000D02*
X162038Y147038D01*
X159114Y143886D02*
X163953Y139047D01*
X159114Y143886D02*
Y153000D01*
X162000Y147075D02*
X162038Y147038D01*
X162000Y147075D02*
Y159000D01*
X168000Y173000D02*
X170681Y170319D01*
X160624Y180507D02*
Y191022D01*
X153000Y185000D02*
Y195000D01*
X150000Y185000D02*
Y195000D01*
X146000Y178000D02*
X153000Y185000D01*
X143000Y178000D02*
X150000Y185000D01*
X140000Y178000D02*
X147000Y185000D01*
Y195000D01*
X132870Y189900D02*
X140970Y198000D01*
X153646D01*
X160624Y191022D01*
X130000Y149000D02*
Y164114D01*
X136000Y136731D02*
Y148000D01*
X125423Y126154D02*
X136000Y136731D01*
X125423Y122577D02*
Y126154D01*
Y122577D02*
X129000Y119000D01*
Y115000D02*
Y119000D01*
X125000Y111000D02*
X129000Y115000D01*
X112000Y111000D02*
X125000D01*
X110900Y166900D02*
X124000Y180000D01*
X110900Y130100D02*
Y166900D01*
X109000Y127000D02*
Y168000D01*
X122000Y181000D01*
X107400Y121600D02*
Y172400D01*
X118000Y183000D01*
X102500Y120500D02*
X112000Y111000D01*
X102500Y120500D02*
Y227000D01*
X103500Y228000D01*
X122000Y174000D02*
X123000Y173000D01*
X168000D01*
X137000Y159000D02*
Y165248D01*
X136823Y165425D02*
X137000Y165248D01*
X119500Y133535D02*
X124035D01*
X129000Y138500D01*
D35*
X113000Y139047D02*
Y144000D01*
Y139047D02*
X119500D01*
X113071Y145000D02*
X119059D01*
X113071D02*
Y150071D01*
X119500D01*
D36*
X138000Y290000D02*
X175300D01*
X123000Y275000D02*
X138000Y290000D01*
X112000Y247000D02*
X119000D01*
X123000Y251000D01*
Y263000D01*
Y275000D01*
X105000Y149000D02*
Y203000D01*
X107000Y205000D01*
Y242000D01*
X112000Y247000D01*
D38*
X135000Y255000D02*
D03*
X155000D02*
D03*
D39*
X138500Y284900D02*
D03*
X163000Y259800D02*
D03*
X175100Y290100D02*
D03*
X150000Y129000D02*
D03*
X123500Y155500D02*
D03*
X173000Y150000D02*
D03*
X140000Y125000D02*
D03*
X136000D02*
D03*
X132000D02*
D03*
X128000D02*
D03*
X118000Y183000D02*
D03*
X160624Y180507D02*
D03*
X132000Y192000D02*
D03*
X105000Y203000D02*
D03*
X113000Y139047D02*
D03*
X123000Y263000D02*
D03*
X130000Y149000D02*
D03*
X132000Y147000D02*
D03*
X159114Y153000D02*
D03*
X162000Y159000D02*
D03*
X140000Y178000D02*
D03*
X153000Y195000D02*
D03*
X147000D02*
D03*
X146000Y178000D02*
D03*
X143000D02*
D03*
X150000Y195000D02*
D03*
X136000Y148000D02*
D03*
X122000Y174000D02*
D03*
X105000Y149000D02*
D03*
X103500Y228000D02*
D03*
X136181Y177376D02*
D03*
X137000Y159000D02*
D03*
X129000Y138500D02*
D03*
X130000Y196000D02*
D03*
X157000Y206000D02*
D03*
X158500Y239000D02*
D03*
X147384Y127220D02*
D03*
X150000Y150000D02*
D03*
X139000Y155500D02*
D03*
X181500Y227500D02*
D03*
X114500Y167000D02*
D03*
D40*
X119500Y117000D02*
D03*
Y122512D02*
D03*
Y128024D02*
D03*
Y133535D02*
D03*
Y139047D02*
D03*
Y144559D02*
D03*
Y150071D02*
D03*
Y155583D02*
D03*
X170681D02*
D03*
Y150071D02*
D03*
Y144559D02*
D03*
Y139047D02*
D03*
Y133535D02*
D03*
Y128024D02*
D03*
Y122512D02*
D03*
Y117000D02*
D03*
D41*
X125799Y165425D02*
D03*
X131311D02*
D03*
X136823D02*
D03*
X142335D02*
D03*
X153358D02*
D03*
X158870D02*
D03*
X164382D02*
D03*
X147846D02*
D03*
M02*
