M48
;Layer_Color=9474304
;FILE_FORMAT=2:4
INCH,LZ
;TYPE=PLATED
T2F00S00C0.0150
;TYPE=NON_PLATED
T1F00S00C0.1000
%
T02
X0113Y013905
X0129Y01385
X013Y0149
X0132Y0147
X0136Y0148
X0139Y01555
X01235
X0105Y0149
X015Y015
Y0129
X014738Y012722
X014Y0125
X0136
X0132
X0128
X015911Y0153
X0173Y015
X0162Y0159
X016062Y018051
X0157Y0206
X01585Y0239
X0163Y02598
X01751Y02901
X01815Y02275
X0153Y0195
X015
X0147
X0132Y0192
X013Y0196
X013618Y017738
X014Y0178
X0143
X0146
X0122Y0174
X0118Y0183
X01145Y0167
X0137Y0159
X0105Y0203
X01035Y0228
X0123Y0263
X01385Y02849
T01
X0135Y0255
X0155
M30
