G04 Layer_Color=65535*
%FSLAX25Y25*%
%MOIN*%
G70*
G01*
G75*
%ADD34C,0.01000*%
%ADD42C,0.00984*%
%ADD43C,0.02362*%
%ADD44C,0.00787*%
%ADD45C,0.00500*%
%ADD46C,0.00394*%
%ADD47C,0.00197*%
G36*
X142959Y112537D02*
X142077Y111655D01*
X143845Y111652D01*
X144165Y111332D01*
X142691Y111356D01*
X142414Y109515D01*
X142102Y109827D01*
X142365Y111362D01*
X141795Y111372D01*
X141176Y110753D01*
X140939Y110990D01*
X142723Y112774D01*
X142959Y112537D01*
D02*
G37*
G36*
X130363Y198945D02*
X109500D01*
Y206080D01*
X130363D01*
Y198945D01*
D02*
G37*
G36*
X132959Y112537D02*
X132077Y111655D01*
X133845Y111652D01*
X134165Y111332D01*
X132691Y111356D01*
X132414Y109515D01*
X132102Y109827D01*
X132365Y111362D01*
X131795Y111372D01*
X131176Y110753D01*
X130939Y110990D01*
X132723Y112774D01*
X132959Y112537D01*
D02*
G37*
G36*
X112960D02*
X112077Y111655D01*
X113845Y111652D01*
X114165Y111332D01*
X112691Y111356D01*
X112414Y109515D01*
X112101Y109827D01*
X112365Y111362D01*
X111795Y111372D01*
X111176Y110753D01*
X110939Y110990D01*
X112723Y112774D01*
X112960Y112537D01*
D02*
G37*
G36*
X122959D02*
X122077Y111655D01*
X123845Y111652D01*
X124165Y111332D01*
X122691Y111356D01*
X122414Y109515D01*
X122101Y109827D01*
X122365Y111362D01*
X121795Y111372D01*
X121176Y110753D01*
X120939Y110990D01*
X122723Y112774D01*
X122959Y112537D01*
D02*
G37*
%LPC*%
G36*
X118493Y204029D02*
X117138D01*
Y201000D01*
X117751D01*
Y202263D01*
X117945D01*
X118009Y202258D01*
X118060Y202254D01*
X118102Y202245D01*
X118134Y202240D01*
X118157Y202231D01*
X118171Y202226D01*
X118175D01*
X118212Y202212D01*
X118244Y202194D01*
X118304Y202152D01*
X118327Y202134D01*
X118346Y202116D01*
X118355Y202106D01*
X118360Y202102D01*
X118378Y202083D01*
X118397Y202056D01*
X118447Y201991D01*
X118503Y201922D01*
X118553Y201844D01*
X118604Y201770D01*
X118627Y201742D01*
X118646Y201710D01*
X118659Y201687D01*
X118673Y201669D01*
X118678Y201659D01*
X118682Y201655D01*
X119116Y201000D01*
X119849D01*
X119480Y201590D01*
X119438Y201655D01*
X119402Y201710D01*
X119369Y201765D01*
X119332Y201816D01*
X119277Y201899D01*
X119226Y201968D01*
X119185Y202019D01*
X119157Y202051D01*
X119139Y202074D01*
X119134Y202079D01*
X119083Y202129D01*
X119028Y202175D01*
X118973Y202222D01*
X118922Y202258D01*
X118876Y202291D01*
X118839Y202314D01*
X118816Y202328D01*
X118812Y202332D01*
X118807D01*
X118881Y202346D01*
X118945Y202360D01*
X119010Y202378D01*
X119065Y202401D01*
X119120Y202425D01*
X119171Y202448D01*
X119212Y202471D01*
X119254Y202494D01*
X119286Y202517D01*
X119319Y202540D01*
X119342Y202563D01*
X119365Y202577D01*
X119378Y202595D01*
X119392Y202604D01*
X119402Y202609D01*
Y202613D01*
X119438Y202655D01*
X119471Y202701D01*
X119517Y202793D01*
X119554Y202890D01*
X119581Y202978D01*
X119595Y203056D01*
X119600Y203088D01*
Y203121D01*
X119604Y203144D01*
Y203162D01*
Y203171D01*
Y203176D01*
X119600Y203273D01*
X119586Y203365D01*
X119563Y203443D01*
X119540Y203512D01*
X119512Y203572D01*
X119494Y203614D01*
X119475Y203642D01*
X119471Y203651D01*
X119415Y203725D01*
X119360Y203784D01*
X119300Y203835D01*
X119245Y203877D01*
X119194Y203909D01*
X119153Y203932D01*
X119125Y203941D01*
X119120Y203946D01*
X119116D01*
X119074Y203960D01*
X119024Y203974D01*
X118913Y203992D01*
X118798Y204010D01*
X118682Y204020D01*
X118632Y204024D01*
X118535D01*
X118493Y204029D01*
D02*
G37*
G36*
X115598D02*
X114953D01*
X113777Y201000D01*
X114423D01*
X114672Y201687D01*
X115893D01*
X116151Y201000D01*
X116815D01*
X115598Y204029D01*
D02*
G37*
G36*
X122702D02*
X122048D01*
X121310Y201788D01*
X120540Y204029D01*
X119881D01*
X120964Y201000D01*
X121624D01*
X122702Y204029D01*
D02*
G37*
G36*
X127169Y204080D02*
X127114D01*
X126990Y204075D01*
X126874Y204061D01*
X126773Y204047D01*
X126685Y204029D01*
X126616Y204006D01*
X126588Y203996D01*
X126566Y203992D01*
X126547Y203983D01*
X126529Y203978D01*
X126524Y203974D01*
X126519D01*
X126432Y203932D01*
X126358Y203881D01*
X126294Y203831D01*
X126243Y203780D01*
X126201Y203734D01*
X126169Y203697D01*
X126151Y203674D01*
X126146Y203669D01*
Y203665D01*
X126104Y203586D01*
X126072Y203512D01*
X126049Y203439D01*
X126035Y203374D01*
X126026Y203314D01*
X126017Y203273D01*
Y203254D01*
Y203240D01*
Y203236D01*
Y203231D01*
X126022Y203167D01*
X126031Y203102D01*
X126045Y203042D01*
X126058Y202987D01*
X126104Y202881D01*
X126155Y202793D01*
X126183Y202756D01*
X126206Y202719D01*
X126229Y202692D01*
X126252Y202669D01*
X126266Y202650D01*
X126280Y202637D01*
X126289Y202627D01*
X126294Y202623D01*
X126335Y202590D01*
X126381Y202558D01*
X126482Y202498D01*
X126598Y202448D01*
X126713Y202406D01*
X126814Y202369D01*
X126860Y202355D01*
X126902Y202346D01*
X126934Y202337D01*
X126957Y202328D01*
X126976Y202323D01*
X126980D01*
X127050Y202305D01*
X127110Y202291D01*
X127165Y202277D01*
X127216Y202263D01*
X127262Y202249D01*
X127298Y202240D01*
X127335Y202231D01*
X127363Y202222D01*
X127409Y202208D01*
X127441Y202199D01*
X127460Y202189D01*
X127464D01*
X127520Y202166D01*
X127566Y202143D01*
X127603Y202125D01*
X127635Y202102D01*
X127658Y202083D01*
X127672Y202069D01*
X127681Y202060D01*
X127686Y202056D01*
X127709Y202028D01*
X127723Y201996D01*
X127741Y201940D01*
X127746Y201913D01*
X127750Y201894D01*
Y201881D01*
Y201876D01*
X127746Y201816D01*
X127727Y201761D01*
X127704Y201710D01*
X127676Y201669D01*
X127644Y201632D01*
X127621Y201608D01*
X127603Y201590D01*
X127598Y201586D01*
X127538Y201544D01*
X127469Y201512D01*
X127395Y201493D01*
X127322Y201475D01*
X127257Y201466D01*
X127206Y201461D01*
X127156D01*
X127054Y201466D01*
X126967Y201484D01*
X126893Y201507D01*
X126828Y201530D01*
X126778Y201558D01*
X126741Y201576D01*
X126718Y201595D01*
X126708Y201599D01*
X126653Y201659D01*
X126607Y201728D01*
X126570Y201802D01*
X126542Y201871D01*
X126519Y201940D01*
X126505Y201991D01*
X126501Y202014D01*
Y202028D01*
X126496Y202037D01*
Y202042D01*
X125902Y201982D01*
X125916Y201890D01*
X125934Y201802D01*
X125957Y201719D01*
X125980Y201645D01*
X126012Y201576D01*
X126040Y201512D01*
X126072Y201456D01*
X126104Y201401D01*
X126137Y201360D01*
X126164Y201318D01*
X126192Y201286D01*
X126215Y201258D01*
X126238Y201235D01*
X126252Y201221D01*
X126261Y201212D01*
X126266Y201207D01*
X126326Y201161D01*
X126395Y201120D01*
X126464Y201088D01*
X126533Y201055D01*
X126607Y201032D01*
X126681Y201009D01*
X126824Y200977D01*
X126893Y200968D01*
X126953Y200958D01*
X127008Y200954D01*
X127054Y200949D01*
X127096Y200945D01*
X127151D01*
X127294Y200949D01*
X127418Y200963D01*
X127529Y200977D01*
X127626Y201000D01*
X127667Y201009D01*
X127704Y201018D01*
X127732Y201028D01*
X127760Y201032D01*
X127778Y201042D01*
X127792Y201046D01*
X127801Y201051D01*
X127806D01*
X127902Y201097D01*
X127981Y201152D01*
X128054Y201207D01*
X128110Y201263D01*
X128156Y201309D01*
X128188Y201350D01*
X128211Y201378D01*
X128216Y201383D01*
Y201387D01*
X128267Y201475D01*
X128303Y201562D01*
X128326Y201645D01*
X128345Y201719D01*
X128354Y201784D01*
X128363Y201834D01*
Y201853D01*
Y201867D01*
Y201876D01*
Y201881D01*
X128359Y201982D01*
X128345Y202074D01*
X128322Y202157D01*
X128303Y202226D01*
X128280Y202282D01*
X128257Y202328D01*
X128244Y202351D01*
X128239Y202360D01*
X128188Y202429D01*
X128138Y202494D01*
X128082Y202544D01*
X128027Y202590D01*
X127981Y202623D01*
X127944Y202650D01*
X127916Y202664D01*
X127912Y202669D01*
X127907D01*
X127866Y202692D01*
X127819Y202710D01*
X127713Y202752D01*
X127607Y202784D01*
X127497Y202821D01*
X127400Y202844D01*
X127358Y202858D01*
X127322Y202867D01*
X127289Y202876D01*
X127266Y202881D01*
X127252Y202886D01*
X127248D01*
X127169Y202904D01*
X127096Y202927D01*
X127031Y202945D01*
X126976Y202964D01*
X126920Y202978D01*
X126879Y202996D01*
X126838Y203010D01*
X126805Y203028D01*
X126773Y203042D01*
X126750Y203051D01*
X126713Y203070D01*
X126695Y203084D01*
X126690Y203088D01*
X126662Y203121D01*
X126639Y203148D01*
X126625Y203181D01*
X126612Y203208D01*
X126607Y203236D01*
X126602Y203254D01*
Y203268D01*
Y203273D01*
X126607Y203314D01*
X126616Y203351D01*
X126630Y203383D01*
X126648Y203411D01*
X126667Y203434D01*
X126681Y203448D01*
X126690Y203457D01*
X126695Y203462D01*
X126754Y203499D01*
X126824Y203526D01*
X126893Y203545D01*
X126957Y203558D01*
X127017Y203568D01*
X127068Y203572D01*
X127110D01*
X127202Y203568D01*
X127280Y203554D01*
X127345Y203540D01*
X127400Y203522D01*
X127441Y203499D01*
X127469Y203485D01*
X127488Y203471D01*
X127492Y203466D01*
X127538Y203425D01*
X127575Y203374D01*
X127603Y203319D01*
X127626Y203263D01*
X127644Y203213D01*
X127653Y203171D01*
X127663Y203144D01*
Y203139D01*
Y203134D01*
X128276Y203157D01*
X128271Y203231D01*
X128257Y203305D01*
X128239Y203374D01*
X128220Y203439D01*
X128170Y203549D01*
X128147Y203600D01*
X128119Y203646D01*
X128091Y203688D01*
X128064Y203725D01*
X128041Y203757D01*
X128018Y203780D01*
X127999Y203798D01*
X127985Y203812D01*
X127976Y203821D01*
X127971Y203826D01*
X127916Y203872D01*
X127852Y203909D01*
X127787Y203946D01*
X127718Y203974D01*
X127575Y204020D01*
X127437Y204047D01*
X127372Y204056D01*
X127312Y204066D01*
X127257Y204070D01*
X127206Y204075D01*
X127169Y204080D01*
D02*
G37*
G36*
X124523Y204029D02*
X123878D01*
X122702Y201000D01*
X123348D01*
X123597Y201687D01*
X124818D01*
X125076Y201000D01*
X125740D01*
X124523Y204029D01*
D02*
G37*
G36*
X113436D02*
X112823D01*
Y202065D01*
Y202000D01*
X112819Y201940D01*
X112814Y201885D01*
X112809Y201834D01*
X112805Y201788D01*
X112795Y201751D01*
X112786Y201715D01*
X112782Y201687D01*
X112763Y201636D01*
X112749Y201604D01*
X112740Y201586D01*
X112735Y201581D01*
X112699Y201544D01*
X112657Y201516D01*
X112611Y201493D01*
X112560Y201479D01*
X112519Y201470D01*
X112482Y201466D01*
X112450D01*
X112381Y201475D01*
X112321Y201493D01*
X112270Y201516D01*
X112228Y201549D01*
X112196Y201576D01*
X112173Y201604D01*
X112159Y201622D01*
X112155Y201627D01*
X112132Y201673D01*
X112118Y201728D01*
X112104Y201788D01*
X112095Y201853D01*
X112085Y201908D01*
Y201954D01*
X112081Y201973D01*
Y201987D01*
Y201991D01*
Y201996D01*
X111500Y201931D01*
X111505Y201844D01*
X111509Y201761D01*
X111523Y201682D01*
X111537Y201608D01*
X111555Y201544D01*
X111574Y201484D01*
X111597Y201429D01*
X111620Y201378D01*
X111643Y201337D01*
X111666Y201300D01*
X111684Y201267D01*
X111703Y201240D01*
X111717Y201221D01*
X111731Y201207D01*
X111735Y201198D01*
X111740Y201194D01*
X111786Y201152D01*
X111841Y201111D01*
X111897Y201078D01*
X111952Y201051D01*
X112067Y201005D01*
X112178Y200977D01*
X112228Y200968D01*
X112279Y200958D01*
X112321Y200954D01*
X112357Y200949D01*
X112390Y200945D01*
X112431D01*
X112569Y200949D01*
X112689Y200968D01*
X112795Y200995D01*
X112883Y201023D01*
X112920Y201037D01*
X112952Y201051D01*
X112980Y201064D01*
X113003Y201078D01*
X113021Y201088D01*
X113035Y201097D01*
X113040Y201101D01*
X113044D01*
X113127Y201166D01*
X113192Y201235D01*
X113252Y201309D01*
X113293Y201373D01*
X113326Y201433D01*
X113349Y201484D01*
X113358Y201502D01*
X113362Y201516D01*
X113367Y201521D01*
Y201525D01*
X113390Y201608D01*
X113409Y201701D01*
X113418Y201798D01*
X113427Y201894D01*
X113432Y201977D01*
X113436Y202014D01*
Y202046D01*
Y202069D01*
Y202088D01*
Y202102D01*
Y202106D01*
Y204029D01*
D02*
G37*
%LPD*%
G36*
X118489Y203512D02*
X118581D01*
X118623Y203508D01*
X118646D01*
X118659Y203503D01*
X118664D01*
X118715Y203489D01*
X118761Y203476D01*
X118798Y203457D01*
X118830Y203434D01*
X118858Y203416D01*
X118876Y203397D01*
X118885Y203388D01*
X118890Y203383D01*
X118918Y203346D01*
X118936Y203305D01*
X118954Y203263D01*
X118964Y203227D01*
X118968Y203194D01*
X118973Y203167D01*
Y203144D01*
Y203139D01*
X118968Y203088D01*
X118964Y203047D01*
X118954Y203005D01*
X118940Y202973D01*
X118927Y202945D01*
X118918Y202927D01*
X118913Y202913D01*
X118908Y202908D01*
X118885Y202876D01*
X118858Y202853D01*
X118802Y202812D01*
X118775Y202802D01*
X118756Y202793D01*
X118742Y202784D01*
X118738D01*
X118715Y202780D01*
X118682Y202770D01*
X118650Y202766D01*
X118609Y202761D01*
X118521Y202756D01*
X118429Y202752D01*
X118341Y202747D01*
X117751D01*
Y203517D01*
X118447D01*
X118489Y203512D01*
D02*
G37*
G36*
X115695Y202199D02*
X114861D01*
X115271Y203323D01*
X115695Y202199D01*
D02*
G37*
G36*
X124620D02*
X123786D01*
X124196Y203323D01*
X124620Y202199D01*
D02*
G37*
D34*
X166775Y194527D02*
G03*
X166775Y194527I-394J0D01*
G01*
X141441Y239087D02*
G03*
X141441Y239087I-197J0D01*
G01*
X163000Y209000D02*
X176000D01*
X163000Y199000D02*
X176000D01*
X148000Y295000D02*
X164000D01*
X148000Y265000D02*
X164000D01*
X174500Y139000D02*
X176000D01*
X174500Y109000D02*
X176000D01*
X150251Y216189D02*
Y210941D01*
X152875Y213565D02*
X147627D01*
D42*
X125480Y235216D02*
G03*
X125480Y235216I-492J0D01*
G01*
X147650Y130478D02*
G03*
X147650Y130478I-492J0D01*
G01*
D43*
X146181Y139734D02*
G03*
X146181Y139734I-1181J0D01*
G01*
D44*
X142322Y210910D02*
Y212090D01*
X145078Y210910D02*
Y212091D01*
X139778Y214309D02*
Y215491D01*
X137022Y214309D02*
Y215491D01*
X129709Y229722D02*
X130891D01*
X129709Y232478D02*
X130891D01*
X112291Y228425D02*
X123709D01*
X112291Y231575D02*
X123709D01*
X112291Y228425D02*
Y231575D01*
X123709Y228425D02*
Y231575D01*
X145000Y184833D02*
X170333Y159500D01*
X119667Y159500D02*
X145000Y134167D01*
X119667Y159500D02*
X145000Y184833D01*
Y134167D02*
X170333Y159500D01*
X139557Y108392D02*
X140392Y107557D01*
X137608Y106443D02*
X138443Y105608D01*
X129557Y108392D02*
X130392Y107557D01*
X127608Y106443D02*
X128443Y105608D01*
X119557Y108392D02*
X120392Y107557D01*
X117608Y106443D02*
X118443Y105608D01*
X109557Y108392D02*
X110392Y107557D01*
X107608Y106443D02*
X108443Y105608D01*
X107494Y145789D02*
Y146970D01*
X110250Y145789D02*
Y146970D01*
X152557Y115392D02*
X153392Y114557D01*
X150608Y113443D02*
X151443Y112608D01*
X152608Y200443D02*
X153443Y199608D01*
X154557Y202392D02*
X155392Y201557D01*
X181235Y158122D02*
X182416D01*
X181235Y160878D02*
X182416D01*
X181409Y163622D02*
X182591D01*
X181409Y166378D02*
X182591D01*
X159608Y127443D02*
X160443Y126608D01*
X161557Y129392D02*
X162392Y128557D01*
X157608Y121443D02*
X158443Y120608D01*
X159557Y123392D02*
X160392Y122557D01*
X107409Y188622D02*
X108591D01*
X107409Y191378D02*
X108591D01*
X107409Y194622D02*
X108591D01*
X107409Y197378D02*
X108591D01*
X108378Y224409D02*
Y225590D01*
X105622Y224409D02*
Y225590D01*
X109557Y159608D02*
X110392Y160443D01*
X107608Y161557D02*
X108443Y162392D01*
X108378Y235409D02*
Y236591D01*
X105622Y235409D02*
Y236591D01*
X111608Y157557D02*
X112443Y158392D01*
X113557Y155608D02*
X114392Y156443D01*
X119409Y208622D02*
X120591D01*
X119409Y211378D02*
X120591D01*
X126622Y219409D02*
Y220591D01*
X129378Y219409D02*
Y220591D01*
X126557Y130608D02*
X127392Y131443D01*
X124608Y132557D02*
X125443Y133392D01*
X120608Y136557D02*
X121443Y137392D01*
X122557Y134608D02*
X123392Y135443D01*
X131409Y235933D02*
X132591D01*
X131409Y240067D02*
X132591D01*
X146362Y226488D02*
X147150D01*
Y237512D01*
X146362D02*
X147150D01*
X140850D02*
X141638D01*
X140850Y226488D02*
Y237512D01*
Y226488D02*
X141638D01*
X153198Y191007D02*
X155007Y189198D01*
X158626Y192817D02*
X159183Y193374D01*
X156817Y194626D02*
X157374Y195183D01*
X176488Y152720D02*
Y155280D01*
X181606Y152720D02*
X182394D01*
X181606Y155280D02*
X182394D01*
X116817Y192374D02*
X117374Y191817D01*
X118626Y194183D02*
X119183Y193626D01*
X120993Y188198D02*
X122802Y190007D01*
X113817Y186626D02*
X114374Y187183D01*
X115626Y184817D02*
X116183Y185374D01*
X110198Y183007D02*
X112007Y181198D01*
X107592Y135985D02*
Y136773D01*
X110151Y135985D02*
Y136773D01*
X173526Y195183D02*
X174083Y194626D01*
X171717Y193374D02*
X172274Y192817D01*
X179917Y185274D02*
X180474Y184717D01*
X181726Y187083D02*
X182283Y186526D01*
X181606Y150279D02*
X182394D01*
X181606Y147721D02*
X182394D01*
X158721Y109606D02*
Y110394D01*
X161279Y109606D02*
Y110394D01*
X108721Y213606D02*
Y214394D01*
X111279Y213606D02*
Y214394D01*
X119606Y214721D02*
X120394D01*
X119606Y217280D02*
X120394D01*
X117606Y240721D02*
X118394D01*
X117606Y243280D02*
X118394D01*
X117817Y145374D02*
X118374Y144817D01*
X119626Y147183D02*
X120183Y146626D01*
X139817Y193374D02*
X140374Y192817D01*
X141626Y195183D02*
X142183Y194626D01*
D45*
X167494Y193414D02*
X181414Y179495D01*
X158586Y184505D02*
X172505Y170586D01*
D46*
X188638Y244732D02*
Y245717D01*
X154189D02*
X188638D01*
X154189Y235874D02*
Y245717D01*
X151236Y235874D02*
X154189D01*
X151236Y220126D02*
Y235874D01*
Y220126D02*
X154189D01*
Y210283D02*
Y220126D01*
Y210283D02*
X188638D01*
Y244732D01*
D47*
X144121Y123230D02*
X148297Y119054D01*
X135770Y114879D02*
X139945Y110703D01*
X148297Y119054D01*
X135770Y114879D02*
X144121Y123230D01*
X134121D02*
X138297Y119054D01*
X125770Y114879D02*
X129946Y110703D01*
X138297Y119054D01*
X125770Y114879D02*
X134121Y123230D01*
X124121D02*
X128297Y119054D01*
X115770Y114879D02*
X119946Y110703D01*
X128297Y119054D01*
X115770Y114879D02*
X124121Y123230D01*
X114121D02*
X118297Y119054D01*
X105770Y114879D02*
X109945Y110703D01*
X118297Y119054D01*
X105770Y114879D02*
X114121Y123230D01*
M02*
