G04 Layer_Color=16711935*
%FSLAX25Y25*%
%MOIN*%
G70*
G01*
G75*
%ADD72C,0.10800*%
%ADD73C,0.02800*%
%ADD74R,0.10446X0.04737*%
%ADD75R,0.04737X0.10446*%
D72*
X135000Y255000D02*
D03*
X155000D02*
D03*
D73*
X138500Y284900D02*
D03*
X163000Y259800D02*
D03*
X175100Y290100D02*
D03*
X150000Y129000D02*
D03*
X123500Y155500D02*
D03*
X173000Y150000D02*
D03*
X140000Y125000D02*
D03*
X136000D02*
D03*
X132000D02*
D03*
X128000D02*
D03*
X118000Y183000D02*
D03*
X160624Y180507D02*
D03*
X132000Y192000D02*
D03*
X105000Y203000D02*
D03*
X113000Y139047D02*
D03*
X123000Y263000D02*
D03*
X130000Y149000D02*
D03*
X132000Y147000D02*
D03*
X159114Y153000D02*
D03*
X162000Y159000D02*
D03*
X140000Y178000D02*
D03*
X153000Y195000D02*
D03*
X147000D02*
D03*
X146000Y178000D02*
D03*
X143000D02*
D03*
X150000Y195000D02*
D03*
X136000Y148000D02*
D03*
X122000Y174000D02*
D03*
X105000Y149000D02*
D03*
X103500Y228000D02*
D03*
X136181Y177376D02*
D03*
X137000Y159000D02*
D03*
X129000Y138500D02*
D03*
X130000Y196000D02*
D03*
X157000Y206000D02*
D03*
X158500Y239000D02*
D03*
X147384Y127220D02*
D03*
X150000Y150000D02*
D03*
X139000Y155500D02*
D03*
X181500Y227500D02*
D03*
X114500Y167000D02*
D03*
D74*
X119500Y117000D02*
D03*
Y122512D02*
D03*
Y128024D02*
D03*
Y133535D02*
D03*
Y139047D02*
D03*
Y144559D02*
D03*
Y150071D02*
D03*
Y155583D02*
D03*
X170681D02*
D03*
Y150071D02*
D03*
Y144559D02*
D03*
Y139047D02*
D03*
Y133535D02*
D03*
Y128024D02*
D03*
Y122512D02*
D03*
Y117000D02*
D03*
D75*
X125799Y165425D02*
D03*
X131311D02*
D03*
X136823D02*
D03*
X142335D02*
D03*
X153358D02*
D03*
X158870D02*
D03*
X164382D02*
D03*
X147846D02*
D03*
M02*
